<?xml version="1.0" encoding="iso-8859-1"?>
<!-- Generator: Adobe Illustrator 19.0.0, SVG Export Plug-In . SVG Version: 6.00 Build 0)  -->
<svg version="1.1" id="Capa_1" xmlns="http://www.w3.org/2000/svg" xmlns:xlink="http://www.w3.org/1999/xlink" x="0px" y="0px"
	 viewBox="0 0 464 464" style="enable-background:new 0 0 464 464;" xml:space="preserve">
<rect x="136" style="fill:#F9CD74;" width="192" height="192"/>
<rect x="208" style="fill:#6B968B;" width="48" height="64"/>
<rect x="40" y="192" style="fill:#F9CD74;" width="192" height="192"/>
<rect x="112" y="192" style="fill:#6B968B;" width="48" height="64"/>
<rect x="232" y="192" style="fill:#F9CD74;" width="192" height="192"/>
<rect x="304" y="192" style="fill:#6B968B;" width="48" height="64"/>
<g>
	<rect y="416" style="fill:#608778;" width="48" height="48"/>
	<rect x="416" y="416" style="fill:#608778;" width="48" height="48"/>
	<rect x="208" y="416" style="fill:#608778;" width="48" height="48"/>
</g>
<polyline style="fill:#6B968B;" points="320,416 0,416 0,384 464,384 464,416 392,416 "/>
<g>
	<path style="fill:#F9B659;" d="M148,160c-4,0-8-0.12-12-0.304V192h192V63.288C304.696,119.24,232.944,160,148,160z"/>
	<path style="fill:#F9B659;" d="M244,352c-4,0-8-0.12-12-0.304V384h192V255.288C400.696,311.24,328.944,352,244,352z"/>
	<path style="fill:#F9B659;" d="M52,352c-4,0-8-0.12-12-0.304V384h192V255.288C208.696,311.24,136.944,352,52,352z"/>
</g>
<g>
	<path style="fill:#EB9850;" d="M296,360c-4.418,0-8-3.582-8-8v-8c0-4.418,3.582-8,8-8s8,3.582,8,8v8
		C304,356.418,300.418,360,296,360z"/>
	<path style="fill:#EB9850;" d="M264,360c-4.418,0-8-3.582-8-8v-8c0-4.418,3.582-8,8-8s8,3.582,8,8v8
		C272,356.418,268.418,360,264,360z"/>
	<path style="fill:#EB9850;" d="M104,360c-4.418,0-8-3.582-8-8v-8c0-4.418,3.582-8,8-8c4.418,0,8,3.582,8,8v8
		C112,356.418,108.418,360,104,360z"/>
	<path style="fill:#EB9850;" d="M72,360c-4.418,0-8-3.582-8-8v-8c0-4.418,3.582-8,8-8s8,3.582,8,8v8C80,356.418,76.418,360,72,360z"
		/>
	<path style="fill:#EB9850;" d="M200,168c-4.418,0-8-3.582-8-8v-8c0-4.418,3.582-8,8-8s8,3.582,8,8v8
		C208,164.418,204.418,168,200,168z"/>
	<path style="fill:#EB9850;" d="M168,168c-4.418,0-8-3.582-8-8v-8c0-4.418,3.582-8,8-8s8,3.582,8,8v8
		C176,164.418,172.418,168,168,168z"/>
</g>
<g>
</g>
<g>
</g>
<g>
</g>
<g>
</g>
<g>
</g>
<g>
</g>
<g>
</g>
<g>
</g>
<g>
</g>
<g>
</g>
<g>
</g>
<g>
</g>
<g>
</g>
<g>
</g>
<g>
</g>
</svg>
